<svg version="1.2" xmlns="http://www.w3.org/2000/svg" viewBox="0 0 251 41" width="251" height="41"><style>.a{fill:#bc052d}</style><path class="a" d="m0.2 29.6v-14.1h21.9v1.3c-4 1.2-8.1 6-8.1 12.5v0.3h-13.8zm13.7 1.7c0.9 6 5.4 9.3 10.6 9.3 5.3 0 8.8-5.4 8.8-6.9 0-1.5-0.6-0.9-1-0.9-0.3 0-0.3 0.1-0.3 0.3-0.7 2.8-2.9 6-7.3 6-4.4 0-5.8-3.3-6.1-7.8h-4.7zm10.4-5.6v-7.6c2.3-0.5 3.9 0.7 3.9 1.9 0 1.3-0.7 2.8-0.7 2.9 0 0.5 1 0.9 1.9 0.9 1.6 0 2.7-0.7 2.7-2.5 0-2.9-4.2-5.6-7.8-5v-13.9h14.2v23.3zm-5.8 3.9v-0.5c0-5.7 0.8-9.2 3.6-10.4v10.9z"/><path class="a" d="m77.5 36.7c0.6 2 2 3.7 4.5 3.7 2.5 0 1.7-0.2 1.9-0.4 0.1-0.1 0.2-0.6 0.2-0.9 0-0.3-0.2-0.4-0.3-0.4-0.2 0-0.7 0.2-1.3 0.2-1.4 0-1.6-1.7-1.6-5 0 0 0.1-3.3 0.1-8 0-4.8-4-7.6-7.4-7.6-3.4 0-6.4 2.1-6.4 4.4 0 2.2 1.1 2.5 2.2 2.5 1.1 0 2.1-0.6 2.1-0.8 0-0.4-0.5-1.1-0.5-2.6 0-1.5 0.9-2.2 2.5-2.2 2.3 0 3.6 2 3.6 5v2.1c0 0.5-0.6 1.3-2.7 1.8-2.2 0.5-4.7 0.8-6.1 1.4-1.9 0.9-2.7 2.5-2.7 4 0 3.8 2.5 6.6 6.5 6.6 4 0 4.7-2 5.4-3.7zm-0.4-8.3v5.6c0 2.2-2.2 4.8-4.1 4.8-2 0-3.4-2.6-3.4-4.9 0-2.4 0.6-2.6 1.6-3.2 0.8-0.4 1.7-0.7 2.9-1 1.6-0.4 2.4-0.9 3-1.3z"/><path class="a" d="m87.2 38.7c-0.3 0-0.3 0.1-0.3 0.5 0 0.8 0.1 0.9 0.5 0.9 1.8 0 2.2-0.1 4.4-0.1 2.3 0 3.2 0.1 5.1 0.1 1.8 0 0.5-0.1 0.5-0.9 0-0.9 0-0.5-0.3-0.5-0.4 0-2.6 0.1-3.2 0.1-0.7 0-0.2-9.3-0.2-11.4 0-4.6 2.4-7.6 4.7-7.6 2.3 0 1.9 0.9 1.9 1.8 0 1.6-0.6 2.5-0.6 2.7 0 0.3 0.6 1.1 1.9 1.1 1.3 0 2.6-1.1 2.6-2.9 0-1.7-1.8-4.3-4.8-4.3-3.1 0-4.8 2-5.8 4.5h-0.1c0-3.9 0-3.9-0.1-3.9-0.3 0-1.3 0.1-1.8 0.1-2 0-4.4-0.1-5.3-0.1-0.8 0-0.2 0.1-0.2 0.5 0 0.8 0.1 0.9 0.4 0.9 0.6 0 2.5-0.1 2.9-0.1 0.4 0 0.3 6.1 0.3 8.2v2.1c0 1.8 0 8.3-0.1 8.3-0.4 0-2 0-2.4 0z"/><path class="a" d="m110.8 13.5c-0.2 0-0.8 0.3-1.8 0.5-0.7 0.2-2.1 0.3-2.1 0.7 0 1.3 0.2 19.7 0.2 19.7 0 4.1 1.8 6.3 5.2 6.3 3.3 0 5.5-3.8 5.5-5 0-1.2-0.5-1.1-0.8-1.1-0.3 0-0.3 0.1-0.4 0.4-0.5 2.4-2 4.1-3.7 4.1-1.7 0-1.8-0.6-1.8-3.2v-15.8c1 0 4.3 0.1 5.3 0.1 0.9 0 0.4-0.1 0.4-0.9 0-0.9 0-0.5-0.2-0.5-0.7 0-4.6 0.1-5.5 0.1 0-5.9 0.1-4.4 0.1-5.2 0-0.7-0.2-0.2-0.3-0.2z"/><path class="a" d="m129.9 18.1c-5.2 0-10.1 4-10.1 11.7 0 7.8 3.6 10.9 10.2 10.9 6.6 0 8.2-4.6 8.2-5.2 0-0.7-0.4-1.2-0.7-1.2-0.3 0-0.3 0-0.4 0.2-0.9 2.4-3.5 4.8-7.1 4.8-3.7 0-6-2.3-6-10.5h13.3c0.3 0 0.6-0.5 0.6-3.1 0-4.1-3.5-7.6-8-7.6zm3.1 9.5h-9c0.3-6.4 2.7-8.2 5.8-8.2 3 0 4.1 3 4.1 5.3 0 2.4-0.5 2.9-0.9 2.9z"/><path class="a" d="m149.3 18.2c-4.1 0-6.3 2.9-6.3 6 0 3 1.6 4.8 4.4 5.8l3.3 1.3c2.9 1 3.5 2.7 3.5 4.4 0 1.7-1.4 3.8-3.9 3.8-2.4 0-3.6-0.8-4.6-2.2-0.8-1.2-1.4-3.1-1.8-4.2 0-0.3-0.2-0.3-0.8-0.3-0.7 0-0.2 0.1-0.2 0.2 0 0.2 0.1 1.8 0.1 3.3 0 1.4-0.3 3.3-0.3 3.6 0 0.3 0.5 0.3 0.7 0.3 0.3 0 0.7-0.8 1.3-0.8 1.1 0 3 1.3 5.7 1.3 2.7 0 6.9-3.1 6.9-6.8 0-3.7-1.7-5-5.3-6.3l-3.3-1.2c-1.7-0.7-2.8-1.8-2.8-3.6 0-1.7 1.1-3.4 3.5-3.4 2.3 0 3.8 2.1 4.2 4.1 0.1 0.4 0.2 0.5 1 0.5 0.7 0 0.2-0.1 0.2-0.3 0-0.2-0.1-1-0.1-2.2 0-1.2 0.3-2.3 0.3-2.4 0-0.1-0.5-0.4-0.6-0.4-0.2 0-0.6 0.6-1.1 0.6-0.5 0-1.7-1-3.9-1z"/><path class="a" d="m46.5 3.2c0-0.1-0.2-0.2-0.3-0.2-0.2 0-0.9 0.2-1.9 0.4-0.7 0.2-2.1 0.4-2.1 0.7 0 0.4 0.1 9.8 0.1 9.8v15.7c0 1.8 0 9.2-0.1 9.2-0.6 0-2.5-0.1-3.1-0.1-0.5 0-0.2 0.1-0.2 0.5 0 0.8 0.1 0.9 0.4 0.9 1.9 0 2.9-0.1 5.1-0.1 2.2 0 2.9 0.1 4.8 0.1 1.9 0 0.5-0.1 0.5-0.9 0-0.9 0-0.5-0.2-0.5-0.7 0-2.3 0.1-3.1 0.1-0.7 0-0.1-5.9-0.1-7.9v-3.5c0.5-4.5 3.1-7.9 6.3-7.9 3.1 0 4.1 2.3 4.1 5.1l-0.1 5c-0.1 1.8 0 9.2-0.1 9.2-0.7 0-2.2-0.1-3-0.1-0.7 0-0.2 0.1-0.2 0.5 0 0.8 0.1 0.9 0.5 0.9 1.9 0 2.6-0.1 4.8-0.1 2.3 0 2.9 0.1 4.8 0.1 1.9 0 0.5-0.1 0.5-0.9 0-0.9-0.1-0.5-0.3-0.5-0.6 0-2.3 0.1-3 0.1-0.6 0-0.1-4.3-0.1-6.4 0 0 0.1-0.9 0.1-5.7 0-4.8-4.1-8.6-7.5-8.6-3.4 0-5.7 2.1-6.7 4.8h-0.1c0-5.1 0.2-19 0.2-19.7z"/><path  d="m61.8 5.2c0 0.2-0.1 1.4-0.1 1.8 0 0.3 0.1 1.3 0.1 1.4 0 0.1-0.1 0.1-0.1 0.1-0.3 0-0.3 0-0.3-0.2-0.1-0.3-0.3-0.7-0.4-0.8q-0.3-0.3-0.8-0.3h-0.9v1c0 0.6 0 2.9 0.1 2.9h1.8c0.9 0 1.4-0.6 1.6-0.9 0.3-0.3 0.3-0.8 0.4-1.2 0-0.2 0.1-0.2 0.3-0.2 0.2 0 0.1 0 0.1 0.1 0 0.2-0.1 1.1-0.1 1.4 0 0.4 0.1 1.1 0.1 1.1 0 0.1 0 0.1-0.1 0.1-1.1 0-4.1 0-4.9 0-0.7 0-1.1 0-1.6 0-0.5 0-0.1 0-0.1-0.3 0-0.2 0-0.1 0-0.1h1.1c0.2 0 0-0.7 0-2.3v-3.3c0-0.4 0-2.1-0.1-2.1h-0.9c-0.2 0-0.2-0.1-0.2-0.3 0-0.3 0-0.1 0.1-0.1 0.5 0 1.2 0 1.7 0h1.4l0.5-2.1c0.1-0.3 0.4-0.5 0.8-0.5 0.5 0 0.2 0 0.2 0.1 0 0.1 0 0.1-0.1 0.2 0 0.1-0.9 1.9-1.1 2.3 1.1 0 2.2-0.1 2.9-0.1 0.6 0 0.1 0.2 0.1 0.2 0 0.1 0 0.9 0 1.3 0 0.3 0 0.7 0 0.8 0 0.2 0 0.2-0.1 0.2-0.3 0-0.3 0-0.3-0.3-0.1-0.4-0.2-0.6-0.4-1-0.2-0.3-0.6-0.7-1.5-0.7h-1.7c0 0 0 2.6 0 3.1v0.3l0.8-0.1c0.4 0 0.8-0.1 1-0.4q0.2-0.4 0.2-1.1c0-0.1 0.1-0.1 0.3-0.1 0.2 0 0.2 0 0.2 0.1z"/><path  d="m69 7c0 0.6-0.4 0.8-0.8 0.8-0.3 0-0.5-0.2-0.5-0.3 0 0 0.1-0.3 0.1-0.7 0-0.4-0.1-0.5-0.4-0.5-0.8 0-1.3 0.7-1.3 2.7 0 2 0.4 2.2 1.4 2.2 1 0 1.3-0.6 1.5-1.4q0-0.1 0.1-0.1c0.1 0 0.2 0.2 0.2 0.3 0 0.4-0.6 1.7-2 1.7-1.5 0-2.5-1.4-2.5-2.7 0-2.1 1.5-3.1 2.6-3.1 1.1 0 1.6 0.6 1.6 1.2v-0.1z"/><path  d="m75.5 8.8c0 1.7-1.3 2.8-2.6 2.8-1.3 0-2.6-1.2-2.6-2.8 0-1.6 1.3-2.9 2.6-2.9 1.3 0 2.6 1.3 2.6 2.9zm-1.2 0c0-1.8-0.5-2.5-1.4-2.5-1 0-1.4 0.8-1.4 2.5 0 1.7 0.4 2.4 1.4 2.4 1 0 1.4-0.7 1.4-2.4z"/><path  d="m78.1 8c0 0.5 0 3.1 0.1 3.1h0.8c0.1 0 0 0 0 0.1 0 0.3 0 0.3-0.1 0.3-0.5 0-0.8 0-1.3 0-0.6 0-1 0-1.5 0-0.5 0-0.1 0-0.1-0.3 0-0.2 0-0.1 0-0.1h1c0.2 0 0-1.8 0-2.3v-5.9c-0.3 0-0.7 0-1 0-0.3 0-0.1 0-0.1-0.3 0-0.2 0-0.1 0.1-0.1 0.4 0 1.3 0 1.7 0 0.4 0 0.4 0 0.5 0 0 0 0.1 0 0.1 0 0 0.5-0.2 1.3-0.2 3.6z"/><path  d="m84.2 7.9c0 0.2-0.1 0.6-0.2 0.6h-3.1c0 1.8 0.3 2.7 1.5 2.7 1.1 0 1.2-0.5 1.5-1.2 0.1-0.1 0.1-0.1 0.1-0.1 0.1 0 0.2 0.3 0.2 0.3 0 0.2-0.5 1.5-2 1.5-1.5 0-2.5-1.5-2.5-2.8 0-1.4 1.1-3 2.4-3 1.3 0 2.1 1.5 2.1 2.1v-0.1zm-1.5 0.3c0.2 0 0.3-0.4 0.3-0.7 0-0.9-0.3-1.2-0.9-1.2-0.6 0-1.2 0.8-1.2 1.9z"/><path  d="m90.3 6.1c0.1 0 0.1 0 0.1 0 0 0 0.1 0.5 0.1 1 0.2-0.7 0.8-1.2 1.5-1.2 1.1 0 1.9 0.6 1.9 1.9v3.3h0.8c0.1 0 0 0 0 0.1 0 0.3 0 0.3-0.1 0.3-0.5 0-0.7 0-1.3 0-0.5 0-0.6 0-1.1 0-0.5 0-0.1 0-0.1-0.3 0-0.2 0-0.1 0-0.1h0.6c0.2 0 0-1.8 0-2.3v-1.5c0-0.5-0.3-0.9-0.8-0.9-0.5 0-1.4 0.7-1.4 1.8 0 1.2 0 2.9 0.1 2.9h0.6c0.1 0 0 0 0 0.1 0 0.3 0 0.3-0.1 0.3-0.5 0-0.6 0-1.1 0-0.6 0-0.9 0-1.4 0-0.4 0-0.1 0-0.1-0.3 0-0.2 0-0.1 0.1-0.1h0.7c0.3 0 0.1-1 0.1-1.8v-0.5c0-0.1 0-1.4-0.1-2.3 0 0-0.6 0-0.7 0-0.2 0-0.2 0-0.2-0.3 0-0.2 0-0.1 0.1-0.1 0.3 0 1.1 0 1.4 0 0.4 0 0.3 0 0.4 0z"/><path  d="m99.5 7.6c0 0.4 0 1.6 0 2.2 0 0.5 0.2 1.4 0.5 1.4 0.4 0 0.2 0 0.3-0.1q0.1-0.1 0.2-0.1 0 0 0 0.2c0 0.1 0 0.1 0 0.2-0.1 0.1-0.4 0.2-0.6 0.2-0.8 0-1.2-0.6-1.4-1-0.2 0.6-0.7 1-1.4 1-1 0-1.5-0.9-1.5-1.6 0-0.7 0.2-0.9 0.6-1.1 0.4-0.2 1.5-0.4 1.8-0.5 0.3-0.1 0.4-0.3 0.4-0.5v-0.5c0-0.8-0.3-1.1-0.8-1.1-0.5 0-0.6 0.2-0.6 0.6 0 0.3 0.1 0.4 0.1 0.6 0 0.1-0.3 0.2-0.6 0.2-0.3 0-0.7-0.2-0.7-0.6 0-0.5 0.6-1.2 1.8-1.2 1.1 0 1.9 0.5 1.9 1.6zm-1 2.2v-1.1q-0.2 0.2-0.4 0.2c-0.4 0.1-0.6 0.2-0.9 0.3-0.3 0.1-0.5 0.3-0.5 0.8 0 0.9 0.3 1.2 0.7 1.2 0.4 0 1.1-0.7 1.1-1.4z"/><path  d="m102.8 4.3c0 0 0.1 0.1 0.1 0.1 0 0.4 0 1.2 0 1.7h1.2c0.1 0 0.1 0 0.1 0.1 0 0.3 0 0.3-0.1 0.3-0.3 0-1 0-1.2 0v3.9c0 0.7 0.2 0.8 0.4 0.8 0.2 0 0.6-0.3 0.8-0.9 0-0.2 0.1-0.2 0.1-0.2 0.1 0 0.3 0.2 0.3 0.3 0 0.3-0.5 1.3-1.4 1.3-0.8 0-1.3-0.7-1.3-1.6v-3.6c-0.1 0-0.7 0.1-0.9 0.1-0.1 0-0.1-0.1-0.1-0.3 0-0.3 0-0.2 0.1-0.2 0.2 0 0.6 0.1 0.9 0.1 0-0.3-0.1-1-0.1-1.3 0-0.4 0.2-0.2 0.6-0.4 0.2 0 0.5-0.2 0.5-0.2z"/><path  d="m107.2 6.1c0.1 0 0.1 0 0.1 0 0 0.5 0 0.9 0 1.5v0.5c0 0.5 0 3 0.1 3 0.2 0 0.4 0 0.6 0 0.2 0 0.1 0 0.1 0.1 0 0.3-0.1 0.3-0.2 0.3-0.5 0-0.6-0.1-1.2-0.1-0.5 0-0.7 0.1-1.2 0.1-0.5 0-0.2 0-0.2-0.3 0-0.3 0-0.1 0.1-0.1 0.2 0 0.5 0 0.7 0 0.2 0 0.1-1.7 0.1-2.3v-2.3c-0.1 0-0.6 0-0.8 0-0.2 0-0.1 0-0.1-0.3 0-0.2 0-0.1 0-0.1 0.5 0 1 0 1.4 0 0.5 0 0.4 0 0.5 0zm0.2-3c0 0.5-0.3 0.8-0.7 0.8-0.3 0-0.7-0.4-0.7-0.8 0-0.3 0.4-0.7 0.7-0.7 0.4 0 0.7 0.4 0.7 0.7z"/><path  d="m114.3 8.8c0 1.7-1.4 2.8-2.7 2.8-1.2 0-2.6-1.2-2.6-2.8 0-1.6 1.4-2.9 2.6-2.9 1.3 0 2.7 1.3 2.7 2.9zm-1.3 0c0-1.8-0.4-2.5-1.4-2.5-0.9 0-1.3 0.8-1.3 2.5 0 1.7 0.3 2.4 1.3 2.4 1.1 0 1.4-0.7 1.4-2.4z"/><path  d="m116.9 6.1c0 0 0.1 0 0.1 0 0 0 0 0.5 0.1 1 0.2-0.7 0.8-1.2 1.5-1.2 1 0 1.8 0.6 1.8 1.9v3.3h0.8c0.2 0 0.1 0 0.1 0.1 0 0.3 0 0.3-0.1 0.3-0.5 0-0.8 0-1.4 0-0.5 0-0.6 0-1.1 0-0.5 0-0.1 0-0.1-0.3 0-0.2 0-0.1 0-0.1h0.6c0.3 0 0.1-1.8 0.1-2.3v-1.5c0-0.5-0.4-0.9-0.9-0.9-0.5 0-1.3 0.7-1.3 1.8 0 1.2 0 2.9 0 2.9h0.6c0.2 0 0.1 0 0.1 0.1 0 0.3-0.1 0.3-0.2 0.3-0.4 0-0.5 0-1.1 0-0.6 0-0.8 0-1.3 0-0.5 0-0.1 0-0.1-0.3 0-0.2 0-0.1 0-0.1h0.8c0.2 0 0-1 0-1.8v-0.5c0-0.1 0-1.4-0.1-2.3 0 0-0.5 0-0.7 0-0.2 0-0.1 0-0.1-0.3 0-0.2 0-0.1 0-0.1 0.4 0 1.1 0 1.5 0 0.3 0 0.3 0 0.3 0z"/><path  d="m126.1 7.6c0 0.4 0 1.6 0 2.2 0 0.5 0.1 1.4 0.5 1.4 0.3 0 0.2 0 0.3-0.1q0.1-0.1 0.1-0.1 0.1 0 0.1 0.2c0 0.1 0 0.1-0.1 0.2-0.1 0.1-0.3 0.2-0.6 0.2-0.7 0-1.1-0.6-1.3-1-0.3 0.6-0.7 1-1.4 1-1.1 0-1.6-0.9-1.6-1.6 0-0.7 0.2-0.9 0.7-1.1 0.4-0.2 1.5-0.4 1.8-0.5 0.3-0.1 0.4-0.3 0.4-0.5v-0.5c0-0.8-0.3-1.1-0.8-1.1-0.6 0-0.7 0.2-0.7 0.6 0 0.3 0.1 0.4 0.1 0.6 0 0.1-0.3 0.2-0.6 0.2-0.3 0-0.6-0.2-0.6-0.6 0-0.5 0.6-1.2 1.7-1.2 1.2 0 2 0.5 2 1.6zm-1.1 2.2v-1.1q-0.1 0.2-0.4 0.2c-0.3 0.1-0.5 0.2-0.8 0.3-0.3 0.1-0.5 0.3-0.5 0.8 0 0.9 0.2 1.2 0.6 1.2 0.5 0 1.1-0.7 1.1-1.4z"/><path  d="m129.6 8c0 0.5 0 3.1 0 3.1h0.8c0.2 0 0.1 0 0.1 0.1 0 0.3 0 0.3-0.1 0.3-0.5 0-0.8 0-1.4 0-0.5 0-1 0-1.5 0-0.4 0-0.1 0-0.1-0.3 0-0.2 0-0.1 0.1-0.1h0.9c0.3 0 0.1-1.8 0.1-2.3v-5.9c-0.3 0-0.7 0-1 0-0.3 0-0.1 0-0.1-0.3 0-0.2 0-0.1 0-0.1 0.4 0 1.3 0 1.7 0 0.4 0 0.4 0 0.5 0 0.1 0 0.1 0 0.1 0 0 0.5-0.1 1.3-0.1 3.6z"/><path  d="m135.6 7.9c0 0.2 0 0.6-0.1 0.6h-3.2c0 1.8 0.4 2.7 1.5 2.7 1.1 0 1.3-0.5 1.6-1.2 0-0.1 0.1-0.1 0.1-0.1 0.1 0 0.2 0.3 0.2 0.3 0 0.2-0.6 1.5-2 1.5-1.5 0-2.6-1.5-2.6-2.8 0-1.4 1.2-3 2.5-3 1.2 0 2 1.5 2 2.1v-0.1zm-1.4 0.3c0.2 0 0.3-0.4 0.3-0.7 0-0.9-0.3-1.2-0.9-1.2-0.6 0-1.2 0.8-1.3 1.9z"/><path  d="m143.8 10.7c-0.3 0.5-0.8 0.9-1.6 0.9-1.4 0-2.3-1.2-2.3-2.8 0-1.6 1.2-2.9 2.4-2.9 1.2 0 1.2 0.5 1.5 1.1v-4.1c-0.1 0-1 0-1.1 0-0.2 0-0.1 0-0.1-0.3 0-0.3 0-0.1 0-0.1 0.5 0 1.3 0 1.8 0 0.5 0 0.4 0 0.5 0 0.1 0 0.1 0 0.1 0 0 0.5-0.1 1.3-0.1 3.6v2c0 0.5 0 3 0 3 0.2 0 0.6 0 0.8 0 0.2 0 0.1 0 0.1 0.1 0 0.3 0 0.3-0.1 0.3-0.5 0-0.7 0-1.2 0-0.6 0-0.4 0-0.5 0-0.1 0-0.2-0.5-0.2-0.8zm-1.3 0.5c0.7 0 1.4-0.5 1.4-2.3 0-1.8-0.8-2.6-1.5-2.6-0.7 0-1.2 0.7-1.2 2.5 0 1.8 0.4 2.4 1.3 2.4z"/><path  d="m150.9 7.9c0 0.2-0.1 0.6-0.2 0.6h-3.1c0 1.8 0.3 2.7 1.4 2.7 1.2 0 1.3-0.5 1.6-1.2 0.1-0.1 0.1-0.1 0.1-0.1 0.1 0 0.2 0.3 0.2 0.3 0 0.2-0.5 1.5-2 1.5-1.5 0-2.5-1.5-2.5-2.8 0-1.4 1.1-3 2.4-3 1.3 0 2 1.5 2 2.1v-0.1zm-1.4 0.3c0.2 0 0.3-0.4 0.3-0.7 0-0.9-0.3-1.2-0.9-1.2-0.6 0-1.2 0.8-1.3 1.9z"/><path  d="m155 6.2c0.2 0 0.2-0.2 0.3-0.2 0.1 0 0.2 0.1 0.2 0.1 0 0.1 0 0.4 0 0.6 0 0.3 0 0.6 0 0.7 0 0 0 0.1-0.1 0.1-0.2 0-0.3 0-0.3-0.2-0.1-0.4-0.4-1-1-1-0.6 0-0.9 0.4-0.9 0.8 0 0.4 0.3 0.7 0.7 0.8l0.8 0.4c0.9 0.3 1.4 0.7 1.4 1.6 0 0.9-0.9 1.8-1.8 1.8-0.9 0-1-0.4-1.4-0.4-0.4 0-0.3 0.3-0.4 0.3-0.1 0-0.3-0.1-0.3-0.2 0 0 0.1-0.3 0.1-0.7v-1c0-0.3 0-0.1 0.1-0.1 0.1 0 0.2 0 0.2 0.1 0.1 0.2 0.3 0.7 0.5 1 0.2 0.3 0.7 0.5 1.2 0.5 0.5 0 0.9-0.3 0.9-0.8 0-0.4-0.2-0.8-0.9-1.1-0.8-0.3-0.5-0.2-0.8-0.3-0.8-0.3-1.2-0.8-1.2-1.5 0-0.7 0.5-1.5 1.7-1.5 1.2 0 0.8 0.2 1 0.2z"/><path class="a" d="m205.7 12.3q-0.7 0-1.2-0.2-0.6-0.3-0.9-0.8-0.2-0.5-0.2-1.1v-4.1h0.5v4q0 0.5 0.2 0.9 0.3 0.4 0.7 0.6 0.3 0.2 0.9 0.2 0.5 0 0.9-0.2 0.4-0.2 0.6-0.6 0.2-0.4 0.2-0.9v-4h0.6v4.1q0 0.6-0.3 1.1-0.3 0.5-0.8 0.8-0.5 0.2-1.2 0.2z"/><path class="a" d="m216.5 6.1v6.1h-0.6v-6.1z"/><path class="a" d="m223.8 12.2v-6.1h3.5v0.5h-2.9v2.3h2.8v0.5h-2.8v2.3h3v0.5h-3.6z"/><path class="a" d="m233 12.2l-1.4-2.6q0.1 0 0.3-0.1 0.4-0.2 0.6-0.6 0.3-0.4 0.2-0.9 0-0.6-0.2-1-0.2-0.4-0.6-0.7-0.5-0.2-1.1-0.2h-2v6.1h0.5v-2.4h1.7l1.3 2.4zm-2.2-3h-1.4v-2.6h1.4q0.5 0 0.8 0.2 0.3 0.2 0.4 0.5 0.2 0.3 0.2 0.7 0 0.3-0.2 0.6-0.1 0.3-0.4 0.5-0.3 0.1-0.8 0.1z"/><path class="a" d="m235.9 12.3q-0.6 0-1-0.2-0.5-0.2-0.8-0.6-0.2-0.3-0.3-0.8h0.6q0.1 0.4 0.3 0.6 0.2 0.2 0.5 0.4 0.3 0.1 0.7 0.1 0.5 0 0.9-0.2 0.3-0.1 0.5-0.4 0.2-0.2 0.2-0.6c0-0.3 0-0.4-0.2-0.5q-0.1-0.2-0.4-0.4-0.3-0.1-0.7-0.2l-0.7-0.2q-0.7-0.2-1.1-0.6-0.4-0.4-0.4-1c0-0.4 0.1-0.6 0.2-0.8q0.3-0.4 0.8-0.6 0.4-0.3 1-0.3 0.6 0 1 0.3 0.4 0.2 0.7 0.5 0.3 0.4 0.3 0.9h-0.6q0-0.5-0.4-0.8-0.4-0.3-1-0.3c-0.4 0-0.5 0-0.8 0.1q-0.3 0.2-0.5 0.4-0.1 0.3-0.1 0.6 0 0.3 0.1 0.5 0.2 0.2 0.5 0.4 0.3 0.1 0.6 0.2l0.6 0.2q0.3 0.1 0.6 0.2 0.3 0.1 0.5 0.3 0.3 0.2 0.4 0.5 0.2 0.2 0.2 0.6c0 0.3-0.1 0.6-0.3 0.9q-0.2 0.4-0.7 0.6-0.5 0.2-1.2 0.2z"/><path class="a" d="m240 6.1v6.1h-0.6v-6.1z"/><path class="a" d="m241.2 6.6v-0.5h4.5v0.5h-1.9v5.6h-0.6v-5.6z"/><path class="a" d="m246.9 12.2v-6.1h3.6v0.5h-3v2.3h2.8v0.5h-2.8v2.3h3.1v0.5h-3.7zm1.6-6.7l0.6-1.2h0.7l-0.8 1.2z"/><path class="a" d="m212.2 20.9h1.7l-2.1-6.1h-2l-2 6.1h1.6l0.4-1.3h2l0.4 1.3zm-2.1-2.4l0.1-0.2q0.2-0.7 0.4-1.5 0.1-0.4 0.2-0.8l0.2 0.8q0.2 0.8 0.4 1.5l0.1 0.2z"/><path class="a" d="m217.9 20.9h1.6l-1.3-2.3q0.5-0.2 0.8-0.7 0.3-0.4 0.3-1 0-0.7-0.3-1.1-0.3-0.5-0.8-0.7-0.5-0.3-1.2-0.3h-2.4v6.1h1.4v-2.1h0.8zm-1.9-4.9h0.7q0.4 0 0.6 0.1 0.2 0.1 0.3 0.3 0.2 0.2 0.2 0.5 0 0.2-0.2 0.4-0.1 0.2-0.3 0.3-0.2 0.1-0.6 0.1h-0.7v-1.7z"/><path class="a" d="m221.6 14.8v6.1h-1.5v-6.1z"/><path class="a" d="m224.9 21q-0.8 0-1.4-0.2-0.5-0.2-0.9-0.7-0.3-0.5-0.3-1.2h1.4q0 0.3 0.2 0.5 0.1 0.2 0.3 0.3 0.3 0.1 0.6 0.1 0.3 0 0.5-0.1 0.3-0.1 0.4-0.2 0.1-0.2 0.1-0.3 0-0.2-0.1-0.4-0.1-0.1-0.3-0.2-0.3-0.1-0.6-0.1l-0.6-0.2q-0.8-0.2-1.3-0.6-0.4-0.4-0.4-1.1c0-0.4 0.1-0.7 0.3-1q0.3-0.4 0.8-0.6 0.6-0.3 1.2-0.3 0.7 0 1.3 0.3 0.5 0.2 0.8 0.6 0.3 0.5 0.3 1h-1.4c0-0.2-0.1-0.4-0.3-0.5q-0.2-0.2-0.7-0.2c-0.3 0-0.3 0-0.5 0.1q-0.1 0-0.2 0.2-0.1 0.1-0.1 0.3 0 0.2 0.1 0.3 0.1 0.1 0.3 0.2 0.2 0.1 0.5 0.2l0.5 0.1q0.4 0.1 0.8 0.3 0.3 0.1 0.6 0.4 0.2 0.2 0.3 0.5 0.2 0.3 0.2 0.6 0 0.6-0.3 1-0.3 0.4-0.8 0.7-0.6 0.2-1.3 0.2z"/><path class="a" d="m205.7 29.7q-0.8 0-1.3-0.2-0.6-0.2-0.9-0.7-0.3-0.5-0.4-1.2h1.4q0.1 0.3 0.2 0.5 0.1 0.2 0.4 0.3 0.2 0.1 0.6 0.1 0.3 0 0.5-0.1 0.2 0 0.3-0.2 0.1-0.1 0.1-0.3 0-0.2-0.1-0.3-0.1-0.2-0.3-0.3-0.2 0-0.5-0.1l-0.7-0.2q-0.8-0.2-1.2-0.6-0.5-0.4-0.5-1.1c0-0.4 0.1-0.7 0.3-1q0.3-0.4 0.9-0.6 0.5-0.3 1.2-0.3 0.7 0 1.2 0.3 0.5 0.2 0.8 0.6 0.3 0.5 0.3 1h-1.4c0-0.2-0.1-0.4-0.2-0.5q-0.3-0.2-0.7-0.2c-0.3 0-0.4 0-0.5 0.1q-0.2 0.1-0.3 0.2-0.1 0.1-0.1 0.3 0 0.2 0.1 0.3 0.1 0.1 0.3 0.2 0.2 0.1 0.5 0.2l0.5 0.1q0.5 0.1 0.8 0.3 0.4 0.1 0.6 0.4 0.3 0.2 0.4 0.5 0.1 0.3 0.1 0.6 0 0.6-0.3 1-0.3 0.4-0.8 0.7-0.5 0.2-1.3 0.2z"/><path class="a" d="m211.6 29.7q-0.8 0-1.4-0.3-0.7-0.4-1.1-1.1-0.4-0.7-0.3-1.7 0-1 0.3-1.7 0.4-0.7 1.1-1.1 0.6-0.3 1.4-0.3c0.6 0 0.7 0 1.1 0.1q0.4 0.2 0.8 0.4 0.3 0.3 0.6 0.7 0.2 0.5 0.2 1h-1.4q-0.1-0.2-0.1-0.4-0.1-0.2-0.3-0.3-0.1-0.2-0.4-0.2-0.2-0.1-0.4-0.1-0.5 0-0.8 0.2-0.3 0.3-0.5 0.7-0.1 0.4-0.1 1 0 0.6 0.1 1 0.2 0.4 0.5 0.6 0.3 0.2 0.8 0.2c0.3 0 0.3 0 0.4 0q0.2-0.1 0.4-0.2 0.1-0.2 0.3-0.3 0.1-0.2 0.1-0.4h1.5q-0.1 0.4-0.3 0.8-0.2 0.4-0.5 0.7-0.4 0.3-0.8 0.5-0.5 0.2-1.1 0.2h-0.1z"/><path fill-rule="evenodd" class="a" d="m216.6 23.5v6.1h-1.5v-6.1z"/><path class="a" d="m217.5 29.6v-6.1h4.3v1.2h-2.8v1.3h2.5v1.1h-2.5v1.4h2.7v1.1h-4.2z"/><path class="a" d="m231.8 29.7q-0.8 0-1.5-0.3-0.6-0.4-1-1.1-0.4-0.7-0.4-1.7 0-1 0.4-1.7 0.4-0.7 1.1-1.1 0.6-0.3 1.4-0.3c0.6 0 0.7 0 1 0.1q0.5 0.2 0.9 0.4 0.3 0.3 0.5 0.7 0.3 0.5 0.3 1h-1.4q-0.1-0.2-0.2-0.4 0-0.2-0.2-0.3-0.2-0.2-0.4-0.2-0.2-0.1-0.4-0.1-0.5 0-0.8 0.2-0.3 0.3-0.5 0.7-0.1 0.4-0.1 1 0 0.6 0.1 1 0.2 0.4 0.5 0.6 0.3 0.2 0.8 0.2c0.3 0 0.3 0 0.4 0q0.2-0.1 0.4-0.2 0.1-0.2 0.2-0.3 0.1-0.2 0.2-0.4h1.5q-0.1 0.4-0.3 0.8-0.2 0.4-0.5 0.7-0.4 0.3-0.8 0.5-0.5 0.2-1.1 0.2h-0.1z"/><path class="a" d="m235.3 29.6v-6.1h4.3v1.2h-2.8v1.3h2.5v1.1h-2.5v1.4h2.7v1.1h-4.2z"/><path class="a" d="m242.8 29.7q-0.8 0-1.4-0.2-0.5-0.2-0.8-0.7-0.4-0.5-0.4-1.2h1.4q0 0.3 0.2 0.5 0.1 0.2 0.4 0.3 0.2 0.1 0.6 0.1 0.3 0 0.5-0.1 0.2 0 0.3-0.2 0.1-0.1 0.1-0.3 0-0.2-0.1-0.3-0.1-0.2-0.3-0.3-0.2 0-0.6-0.1l-0.6-0.2q-0.8-0.2-1.3-0.6-0.4-0.4-0.4-1.1c0-0.4 0.1-0.7 0.3-1q0.3-0.4 0.8-0.6 0.6-0.3 1.3-0.3 0.7 0 1.2 0.3 0.5 0.2 0.8 0.6 0.3 0.5 0.3 1h-1.4c0-0.2-0.1-0.4-0.3-0.5q-0.2-0.2-0.6-0.2c-0.3 0-0.4 0-0.5 0.1q-0.2 0.1-0.3 0.2-0.1 0.1-0.1 0.3 0 0.2 0.1 0.3 0.1 0.1 0.3 0.2 0.2 0.1 0.5 0.2l0.5 0.1q0.5 0.1 0.8 0.3 0.4 0.1 0.6 0.4 0.2 0.2 0.4 0.5 0.1 0.3 0.1 0.6 0 0.6-0.3 1-0.3 0.4-0.8 0.7-0.6 0.2-1.3 0.2z"/><path class="a" d="m208.6 38.3l-0.9-1q0.1-0.1 0.1-0.2 0.2-0.3 0.4-0.8 0.1-0.5 0.1-1h-1.2q0 0.4-0.1 0.8-0.1 0.1-0.2 0.2l-0.9-1 0.4-0.2q0.2-0.2 0.4-0.4 0.2-0.2 0.3-0.5 0.1-0.3 0.1-0.5 0-0.5-0.2-0.8-0.2-0.3-0.6-0.5-0.3-0.2-0.8-0.2-0.5 0-0.9 0.2-0.4 0.2-0.6 0.6-0.2 0.3-0.2 0.8 0 0.4 0.1 0.7 0.2 0.4 0.4 0.7-0.3 0.2-0.6 0.4-0.2 0.2-0.3 0.5-0.2 0.3-0.2 0.6c0 0.3 0.1 0.6 0.3 0.9q0.2 0.4 0.7 0.6 0.4 0.3 1.1 0.3c0.4 0 0.5-0.1 0.8-0.2q0.4-0.1 0.7-0.3l0.4 0.4h1.5zm-3.7-4.9q0.1-0.1 0.2-0.1 0.1-0.1 0.3-0.1 0.2 0 0.4 0.1 0.1 0.2 0.1 0.3c0 0.2 0 0.2 0 0.3q-0.1 0.1-0.2 0.2-0.1 0.1-0.2 0.2l-0.3 0.1q-0.1-0.2-0.2-0.3-0.1-0.2-0.1-0.4 0-0.2 0-0.3zm1 3.7q-0.3 0.1-0.6 0.1c-0.3 0-0.3 0-0.4-0.1q-0.2 0-0.3-0.2-0.1-0.1-0.1-0.3 0-0.2 0.1-0.4 0.1-0.2 0.3-0.3l1 1.1q0 0.1 0 0.1z"/><path class="a" d="m210.4 38.3v-6.1h1.4v5h2.5v1.1z"/><path class="a" d="m215.1 38.3v-6.1h4.2v1.2h-2.8v1.3h2.6v1.1h-2.6v1.4h2.8v1.1h-4.2z"/><path class="a" d="m220 33.4v-1.2h5v1.2h-1.8v4.9h-1.4v-4.9z"/><path class="a" d="m225.5 33.4v-1.2h5v1.2h-1.7v4.9h-1.5v-4.9z"/><path class="a" d="m234.6 38.3h1.6l-1.3-2.3q0.5-0.2 0.8-0.7 0.3-0.4 0.3-1 0-0.7-0.3-1.1-0.2-0.4-0.7-0.7-0.5-0.3-1.2-0.3h-2.5v6.1h1.4v-2.1h0.8zm-1.9-4.9h0.7q0.4 0 0.6 0.1 0.2 0.1 0.4 0.3 0.1 0.2 0.1 0.5 0 0.3-0.1 0.4-0.1 0.2-0.4 0.3-0.2 0.1-0.6 0.1h-0.7v-1.7z"/><path class="a" d="m236.9 38.3v-6.1h4.2v1.2h-2.8v1.3h2.6v1.1h-2.6v1.4h2.8v1.1h-4.2z"/><path class="a" d="m244.4 38.4q-0.8 0-1.4-0.2-0.5-0.2-0.8-0.7-0.4-0.5-0.4-1.2h1.4q0 0.3 0.2 0.5 0.1 0.2 0.4 0.3 0.2 0.1 0.5 0.1 0.4 0 0.6-0.1 0.2 0 0.3-0.2 0.1-0.1 0.1-0.3 0-0.2-0.1-0.3-0.1-0.2-0.3-0.3-0.2 0-0.6-0.1l-0.6-0.2q-0.8-0.2-1.3-0.6-0.4-0.4-0.4-1.1c0-0.4 0.1-0.7 0.3-1q0.3-0.4 0.8-0.6 0.6-0.3 1.3-0.3 0.7 0 1.2 0.3 0.5 0.2 0.8 0.6 0.3 0.5 0.3 1h-1.4c0-0.2-0.1-0.4-0.3-0.5q-0.2-0.2-0.7-0.2c-0.2 0-0.3 0.1-0.4 0.1q-0.2 0.1-0.3 0.2-0.1 0.1-0.1 0.3 0 0.2 0.1 0.3 0.1 0.2 0.3 0.2 0.2 0.1 0.5 0.2l0.5 0.1q0.5 0.1 0.8 0.3 0.4 0.1 0.6 0.4 0.2 0.2 0.4 0.5 0.1 0.3 0.1 0.6 0 0.6-0.3 1-0.3 0.5-0.8 0.7-0.6 0.2-1.3 0.2z"/><path class="a" d="m207.8 15.8q-0.3-0.4-0.8-0.7-0.5-0.3-1.2-0.3h-2.4v6.1h1.4v-1.9h1q0.7 0 1.2-0.2 0.5-0.3 0.8-0.7 0.3-0.5 0.3-1.1 0-0.7-0.3-1.2zm-1.3 1.6q-0.2 0.3-0.4 0.4-0.2 0.1-0.6 0.1h-0.7v-1.9h0.7q0.4 0 0.6 0.1 0.2 0.1 0.4 0.3 0.1 0.2 0.1 0.5 0 0.3-0.1 0.5z"/><path class="a" d="m226.6 23.5v2.6q0 0.3 0 0.7 0 0.4 0.1 0.8 0 0.1 0 0.3-0.1-0.2-0.2-0.4-0.1-0.4-0.3-0.7-0.1-0.2-0.3-0.5l-1.7-2.8h-1.6v6.1h1.5v-2.5q0-0.2 0-0.6 0-0.3-0.1-0.8 0-0.2 0-0.4 0.1 0.2 0.2 0.4 0.2 0.4 0.3 0.7 0.2 0.4 0.4 0.7l1.6 2.5h1.6v-6.1h-1.5z"/><path class="a" d="m213.7 6.1v4.5q0 0.3 0 0.5 0 0.2 0.1 0.4-0.1-0.2-0.2-0.3-0.2-0.3-0.3-0.5-0.2-0.2-0.3-0.4l-2.8-4.2h-0.6v6.1h0.5v-4.3q0-0.3 0-0.6 0-0.2 0-0.5 0.2 0.3 0.3 0.5 0.2 0.4 0.4 0.6 0.1 0.2 0.3 0.5l2.6 3.8h0.6v-6.1h-0.5z"/><path class="a" d="m222.1 6.1l-1.4 4q-0.1 0.3-0.2 0.8-0.2 0.3-0.3 0.8-0.2-0.4-0.3-0.8-0.2-0.5-0.3-0.8l-1.4-4h-0.6l2.2 6.1h0.7l2.3-6.1z"/><path class="a" d="m195.8 6.1h-25.4v21.9c0 7.1 5.6 12.8 12.7 12.8 7 0 12.7-5.8 12.7-12.8zm-0.7 0.7v21.3c0 6.6-5.4 12-12.1 12-6.6 0-12-5.4-12-12v-21.3h24.1"/><path class="a" d="m186.5 22.7c-0.6-0.4-1.6-1-2.3-1.5v-1.6h2.3c2 0 3.6-1.7 3.6-3.8 0-2.1-1.6-3.8-3.6-3.8h-7.2v0.1c0 0 1.2 0.6 1.2 2.8-0.3 0-1.2-0.1-2.3 0.5-0.6 0.3-1.2 0.7-1.5 1.3q-0.1 0.1-0.1 0.1c-1.1 1.8-0.6 4.1 1.3 5.3 1.6 1 6.4 3.9 7.3 4.4 0.7 0.4 1.1 1 1.1 1.6 0 0.8-0.9 1.6-2.1 1.9v-3.1l-3.7-2.2v5.3c-1.2-0.3-2-1-2.1-1.9 0-1 0.7-1.9 1.5-2.4l-2.9-1.8c-0.6 0.7-1 1.4-1 2.2 0 2 1.9 3.6 4.5 4.1 0 2.1-1.2 2.7-1.2 2.7v0.1h10.3l0.4-2.6h-0.1c-1.3 1.4-3.3 2.2-5.7 2.4v-2.6c2.6-0.5 4.4-2.1 4.5-4 0-1.7-1.1-2.8-2.2-3.5zm-2.3-10.5c1.8 0 2.5 1.5 2.5 3.6 0 2-0.7 3.6-2.5 3.6zm-3.7 2.9v3.9c-0.7-0.4-1.2-0.7-1.2-0.7-0.8-0.5-1.1-1.6-0.6-2.4 0.4-0.6 0.9-0.9 1.8-0.9z"/></svg>